<?xml version="1.0" standalone="no"?>
<!DOCTYPE svg PUBLIC "-//W3C//DTD SVG 20010904//EN"
 "http://www.w3.org/TR/2001/REC-SVG-20010904/DTD/svg10.dtd">
<svg version="1.0" xmlns="http://www.w3.org/2000/svg"
 width="331.000000pt" height="331.000000pt" viewBox="0 0 331.000000 331.000000"
 preserveAspectRatio="xMidYMid meet">
<metadata>
Created by potrace 1.11, written by Peter Selinger 2001-2013
</metadata>
<g transform="translate(0.000000,331.000000) scale(0.100000,-0.100000)"
fill="#000000" stroke="none">
<path d="M858 3226 c4 -45 7 -247 7 -451 l0 -370 -45 3 c-25 2 -62 5 -82 7
l-37 5 0 -276 0 -275 85 6 84 7 0 -209 0 -210 -342 2 c-307 2 -481 9 -499 20
-3 3 -6 -138 -6 -311 l0 -315 46 7 c25 3 220 8 433 11 l386 5 -4 -74 c-2 -40
-6 -92 -9 -115 l-6 -43 276 1 276 1 -7 101 c-3 56 -7 107 -8 112 -1 6 85 11
235 13 l236 2 -2 -362 c-1 -200 -6 -390 -10 -423 -8 -67 -8 -66 -6 -81 1 -7
96 -10 309 -10 l307 1 -3 40 c-2 22 -5 225 -9 452 l-5 412 28 -4 c16 -2 55 -6
87 -9 l57 -6 0 275 0 276 -84 -6 -85 -7 -3 29 c-2 15 -2 105 0 199 l3 172 352
-3 c194 -2 376 -8 404 -13 29 -5 55 -7 58 -4 3 3 5 144 5 314 l0 310 -37 -7
c-21 -4 -215 -9 -431 -12 l-392 -5 5 68 c3 38 7 90 9 117 l4 47 -275 0 -275 0
7 -87 c4 -49 8 -100 9 -115 l2 -28 -227 0 -226 0 2 363 c1 199 5 401 10 448
l7 85 -311 0 -311 0 8 -80z m1017 -1581 l0 -180 -210 0 -210 0 -1 175 c0 96 3
178 8 181 4 3 99 5 211 5 l202 -1 0 -180z"/>
</g>
</svg>
